solid modelOoooo

spectator = (5, 0, 10)
look dir(1, 0, 0), up(0, 0, 1), size(1024, 1024)
light_source origin = (30, -30, 30), brightness = (8000, 8000, 8000)
deflection_rate = 20

parallelogram
    vertexes_abc
        vertex 20 0 0
        vertex 20 0 20
        vertex 5 20 0
    endvertexes
    color = (0, 255, 0) background = 0.1 dispersive = 0.1 refractive = 0.0 deflective = 1.0 glare = 0
endparallelogram


parallelogram
    vertexes_abc
        vertex -20 -10 -10
        vertex -20 -10 30
        vertex 0 -30 -10
    endvertexes
    color = (255, 0, 0) background = 0.1 dispersive = 0.1 refractive = 0.0 deflective = 0.8 glare = 0
endparallelogram

facet normal 0.000000 0.000000 1.000000
    outer loop
      vertex 15 -5 7
      vertex 16 -5 0
      vertex 14 4 3
    endloop
    texture ((1, 0, -7), (-1, 9, -4)) (4, 4) pictures/space.jpg
    color = (0, 0, 255) background = 0.1 dispersive = 0.1 refractive = 0.9 refractive_index = 0.8 deflective = 0.0 glare = 0
  endfacet

sphere
    center 40 -30 15
    radius = 8
    color = (0, 120, 120) glare = 10.6 dispersive = 0.05 deflective = 0.6
endsphere

sphere
    center 20 0 17
    radius = 3
    color = (170, 0, 0) glare = 5.6 dispersive = 0.1 refractive = 0.8
endsphere



# space around us
    parallelogram
        vertexes_abc
            vertex 1e9 -1e9 -1e9
            vertex 1e9 1e9 -1e9
            vertex 1e9 -1e9 1e9
        endvertexes
        color = (0, 0, 0) background = 1.0 refractive = 0.0 deflective = 0.0 glare = 0
        texture ((0, 2e9, 0), (0, 0, 2e9)) (2e9, 2e9) pictures/space.jpg
    endparallelogram
    parallelogram
        vertexes_abc
            vertex -1e9 1e9 -1e9
            vertex 1e9 1e9 -1e9
            vertex -1e9 1e9 1e9
        endvertexes
        color = (0, 0, 0) background = 1.0 refractive = 0.0 deflective = 0.0 glare = 0
        texture ((2e9, 0, 0), (0, 0, 2e9)) (2e9, 2e9) pictures/space.jpg
    endparallelogram
    parallelogram
        vertexes_abc
            vertex -1e9 -1e9 1e9
            vertex -1e9 1e9 1e9
            vertex 1e9 -1e9 1e9
        endvertexes
        color = (0, 0, 0) background = 1.0 refractive = 0.0 deflective = 0.0 glare = 0
        texture ((2e9, 0, 0), (0, 2e9, 0)) (2e9, 2e9) pictures/space.jpg
    endparallelogram
    parallelogram
        vertexes_abc
            vertex -1e9 -1e9 -1e9
            vertex -1e9 1e9 -1e9
            vertex -1e9 -1e9 1e9
        endvertexes
        color = (0, 0, 0) background = 1.0 refractive = 0.0 deflective = 0.0 glare = 0
        texture ((0, 2e9, 0), (0, 0, 2e9)) (2e9, 2e9) pictures/space.jpg
    endparallelogram
    parallelogram
        vertexes_abc
            vertex -1e9 -1e9 -1e9
            vertex 1e9 -1e9 -1e9
            vertex -1e9 -1e9 1e9
        endvertexes
        color = (0, 0, 0) background = 1.0 refractive = 0.0 deflective = 0.0 glare = 0
        texture ((2e9, 0, 0), (0, 0, 2e9)) (2e9, 2e9) pictures/space.jpg
    endparallelogram
    parallelogram
        vertexes_abc
            vertex -1e9 -1e9 -1e9
            vertex -1e9 1e9 -1e9
            vertex 1e9 -1e9 -1e9
        endvertexes
        color = (0, 0, 0) background = 1.0 refractive = 0.0 deflective = 0.0 glare = 0
        texture ((2e9, 0, 0), (0, 2e9, 0)) (2e9, 2e9) pictures/space.jpg
    endparallelogram
# end of space


default_color = (170, 170, 170)

facet normal 1.000000 0.000000 0.000000
    outer loop
      vertex 3.250000 -2.480000 14.000000
      vertex 3.250000 -2.480000 9.010000
      vertex 3.250000 2.480000 9.010000
    endloop
  endfacet
  facet normal 1.000000 0.000000 0.000000
    outer loop
      vertex 3.250000 -2.480000 14.000000
      vertex 3.250000 2.480000 9.010000
      vertex 3.250000 2.480000 14.000000
    endloop
  endfacet
  facet normal 0.000000 -1.000000 0.000000
    outer loop
      vertex 0.773000 -2.480000 14.000000
      vertex 0.773000 -2.480000 9.010000
      vertex 3.250000 -2.480000 9.010000
    endloop
  endfacet
  facet normal 0.000000 -1.000000 0.000000
    outer loop
      vertex 0.773000 -2.480000 14.000000
      vertex 3.250000 -2.480000 9.010000
      vertex 3.250000 -2.480000 14.000000
    endloop
  endfacet
  facet normal -1.000000 0.000000 0.000000
    outer loop
      vertex 0.773000 2.480000 14.000000
      vertex 0.773000 2.480000 9.010000
      vertex 0.773000 -2.480000 9.010000
    endloop
  endfacet
  facet normal -1.000000 0.000000 0.000000
    outer loop
      vertex 0.773000 2.480000 14.000000
      vertex 0.773000 -2.480000 9.010000
      vertex 0.773000 -2.480000 14.000000
    endloop
  endfacet
  facet normal 0.000000 1.000000 0.000000
    outer loop
      vertex 3.250000 2.480000 14.000000
      vertex 3.250000 2.480000 9.010000
      vertex 0.773000 2.480000 9.010000
    endloop
  endfacet
  facet normal 0.000000 1.000000 0.000000
    outer loop
      vertex 3.250000 2.480000 14.000000
      vertex 0.773000 2.480000 9.010000
      vertex 0.773000 2.480000 14.000000
    endloop
  endfacet
  facet normal 0.000000 0.000000 1.000000
    outer loop
      vertex 0.773000 2.480000 14.000000
      vertex 0.773000 -2.480000 14.000000
      vertex 3.250000 -2.480000 14.000000
    endloop
  endfacet
  facet normal 0.000000 0.000000 1.000000
    outer loop
      vertex 0.773000 2.480000 14.000000
      vertex 3.250000 -2.480000 14.000000
      vertex 3.250000 2.480000 14.000000
    endloop
  endfacet
  facet normal 0.000000 0.000000 -1.000000
    outer loop
      vertex 3.250000 -2.480000 9.010000
      vertex 0.773000 -2.480000 9.010000
      vertex 0.773000 2.480000 9.010000
    endloop
  endfacet
  facet normal 0.000000 0.000000 -1.000000
    outer loop
      vertex 3.250000 -2.480000 9.010000
      vertex 0.773000 2.480000 9.010000
      vertex 3.250000 2.480000 9.010000
    endloop
  endfacet
  plainfacet
    coordinate_system = ((3.470000, -1.29, 17.4), (0, 2.48, 0), (0, 0, -2.4))
    vertexes
      vertex 0 0
      vertex 0 0.4
      vertex -0.3 0.5
      vertex 0.0 0.6
      vertex 0 1
      vertex 0.4 1
      vertex 0.5 1.3
      vertex 0.6 1
      vertex 1 1
      vertex 1 0.6
      vertex 1.3 0.5
      vertex 1 0.4
      vertex 1 0
      vertex 0.6 0
      vertex 0.5 -0.3
      vertex 0.4
    endvertexes
    texture ((0, 2.5, 0), (0, 0, 2.5)) (2.5, 2.5) pictures/smile.jpg
  endplainfacet

  facet normal 0.000000 -1.000000 0.000000
    outer loop
      vertex 0.601000 -1.290000 17.400000
      vertex 0.601000 -1.290000 15.000000
      vertex 3.470000 -1.290000 15.000000
    endloop
  endfacet
  facet normal 0.000000 -1.000000 0.000000
    outer loop
      vertex 0.601000 -1.290000 17.400000
      vertex 3.470000 -1.290000 15.000000
      vertex 3.470000 -1.290000 17.400000
    endloop
  endfacet
  facet normal -1.000000 0.000000 0.000000
    outer loop
      vertex 0.601000 1.190000 17.400000
      vertex 0.601000 1.190000 15.000000
      vertex 0.601000 -1.290000 15.000000
    endloop
  endfacet
  facet normal -1.000000 0.000000 0.000000
    outer loop
      vertex 0.601000 1.190000 17.400000
      vertex 0.601000 -1.290000 15.000000
      vertex 0.601000 -1.290000 17.400000
    endloop
  endfacet
  facet normal 0.000000 1.000000 0.000000
    outer loop
      vertex 3.470000 1.190000 17.400000
      vertex 3.470000 1.190000 15.000000
      vertex 0.601000 1.190000 15.000000
    endloop
  endfacet
  facet normal 0.000000 1.000000 0.000000
    outer loop
      vertex 3.470000 1.190000 17.400000
      vertex 0.601000 1.190000 15.000000
      vertex 0.601000 1.190000 17.400000
    endloop
  endfacet
  facet normal 0.000000 0.000000 1.000000
    outer loop
      vertex 0.601000 1.190000 17.400000
      vertex 0.601000 -1.290000 17.400000
      vertex 3.470000 -1.290000 17.400000
    endloop
  endfacet
  facet normal 0.000000 0.000000 1.000000
    outer loop
      vertex 0.601000 1.190000 17.400000
      vertex 3.470000 -1.290000 17.400000
      vertex 3.470000 1.190000 17.400000
    endloop
  endfacet
  facet normal 0.000000 0.000000 -1.000000
    outer loop
      vertex 3.470000 -1.290000 15.000000
      vertex 0.601000 -1.290000 15.000000
      vertex 0.601000 1.190000 15.000000
    endloop
  endfacet
  facet normal 0.000000 0.000000 -1.000000
    outer loop
      vertex 3.470000 -1.290000 15.000000
      vertex 0.601000 1.190000 15.000000
      vertex 3.470000 1.190000 15.000000
    endloop
  endfacet
  facet normal 1.000000 0.000000 0.000000
    outer loop
      vertex 3.150000 -2.470000 8.010000
      vertex 3.150000 -2.470000 3.050000
      vertex 3.150000 -0.486000 3.050000
    endloop
  endfacet
  facet normal 1.000000 0.000000 0.000000
    outer loop
      vertex 3.150000 -2.470000 8.010000
      vertex 3.150000 -0.486000 3.050000
      vertex 3.150000 -0.486000 8.010000
    endloop
  endfacet
  facet normal 0.000000 -1.000000 0.000000
    outer loop
      vertex 0.892000 -2.470000 8.010000
      vertex 0.892000 -2.470000 3.050000
      vertex 3.150000 -2.470000 3.050000
    endloop
  endfacet
  facet normal 0.000000 -1.000000 0.000000
    outer loop
      vertex 0.892000 -2.470000 8.010000
      vertex 3.150000 -2.470000 3.050000
      vertex 3.150000 -2.470000 8.010000
    endloop
  endfacet
  facet normal -1.000000 0.000000 0.000000
    outer loop
      vertex 0.892000 -0.486000 8.010000
      vertex 0.892000 -0.486000 3.050000
      vertex 0.892000 -2.470000 3.050000
    endloop
  endfacet
  facet normal -1.000000 0.000000 0.000000
    outer loop
      vertex 0.892000 -0.486000 8.010000
      vertex 0.892000 -2.470000 3.050000
      vertex 0.892000 -2.470000 8.010000
    endloop
  endfacet
  facet normal 0.000000 1.000000 0.000000
    outer loop
      vertex 3.150000 -0.486000 8.010000
      vertex 3.150000 -0.486000 3.050000
      vertex 0.892000 -0.486000 3.050000
    endloop
  endfacet
  facet normal 0.000000 1.000000 0.000000
    outer loop
      vertex 3.150000 -0.486000 8.010000
      vertex 0.892000 -0.486000 3.050000
      vertex 0.892000 -0.486000 8.010000
    endloop
  endfacet
  facet normal 0.000000 0.000000 1.000000
    outer loop
      vertex 0.892000 -0.486000 8.010000
      vertex 0.892000 -2.470000 8.010000
      vertex 3.150000 -2.470000 8.010000
    endloop
  endfacet
  facet normal 0.000000 0.000000 1.000000
    outer loop
      vertex 0.892000 -0.486000 8.010000
      vertex 3.150000 -2.470000 8.010000
      vertex 3.150000 -0.486000 8.010000
    endloop
  endfacet
  facet normal 0.000000 0.000000 -1.000000
    outer loop
      vertex 3.150000 -2.470000 3.050000
      vertex 0.892000 -2.470000 3.050000
      vertex 0.892000 -0.486000 3.050000
    endloop
  endfacet
  facet normal 0.000000 0.000000 -1.000000
    outer loop
      vertex 3.150000 -2.470000 3.050000
      vertex 0.892000 -0.486000 3.050000
      vertex 3.150000 -0.486000 3.050000
    endloop
  endfacet
  facet normal 1.000000 0.000000 0.000000
    outer loop
      vertex 3.230000 -3.960000 14.000000
      vertex 3.230000 -3.960000 9.010000
      vertex 3.230000 -2.480000 9.010000
    endloop
  endfacet
  facet normal 1.000000 0.000000 0.000000
    outer loop
      vertex 3.230000 -3.960000 14.000000
      vertex 3.230000 -2.480000 9.010000
      vertex 3.230000 -2.480000 14.000000
    endloop
  endfacet
  facet normal 0.000000 -1.000000 0.000000
    outer loop
      vertex 0.747000 -3.960000 14.000000
      vertex 0.747000 -3.960000 9.010000
      vertex 3.230000 -3.960000 9.010000
    endloop
  endfacet
  facet normal 0.000000 -1.000000 0.000000
    outer loop
      vertex 0.747000 -3.960000 14.000000
      vertex 3.230000 -3.960000 9.010000
      vertex 3.230000 -3.960000 14.000000
    endloop
  endfacet
  facet normal -1.000000 0.000000 0.000000
    outer loop
      vertex 0.747000 -2.480000 14.000000
      vertex 0.747000 -2.480000 9.010000
      vertex 0.747000 -3.960000 9.010000
    endloop
  endfacet
  facet normal -1.000000 0.000000 0.000000
    outer loop
      vertex 0.747000 -2.480000 14.000000
      vertex 0.747000 -3.960000 9.010000
      vertex 0.747000 -3.960000 14.000000
    endloop
  endfacet
  facet normal 0.000000 1.000000 0.000000
    outer loop
      vertex 3.230000 -2.480000 14.000000
      vertex 3.230000 -2.480000 9.010000
      vertex 0.747000 -2.480000 9.010000
    endloop
  endfacet
  facet normal 0.000000 1.000000 0.000000
    outer loop
      vertex 3.230000 -2.480000 14.000000
      vertex 0.747000 -2.480000 9.010000
      vertex 0.747000 -2.480000 14.000000
    endloop
  endfacet
  facet normal 0.000000 0.000000 1.000000
    outer loop
      vertex 0.747000 -2.480000 14.000000
      vertex 0.747000 -3.960000 14.000000
      vertex 3.230000 -3.960000 14.000000
    endloop
  endfacet
  facet normal 0.000000 0.000000 1.000000
    outer loop
      vertex 0.747000 -2.480000 14.000000
      vertex 3.230000 -3.960000 14.000000
      vertex 3.230000 -2.480000 14.000000
    endloop
  endfacet
  facet normal 0.000000 0.000000 -1.000000
    outer loop
      vertex 3.230000 -3.960000 9.010000
      vertex 0.747000 -3.960000 9.010000
      vertex 0.747000 -2.480000 9.010000
    endloop
  endfacet
  facet normal 0.000000 0.000000 -1.000000
    outer loop
      vertex 3.230000 -3.960000 9.010000
      vertex 0.747000 -2.480000 9.010000
      vertex 3.230000 -2.480000 9.010000
    endloop
  endfacet
  facet normal 1.000000 0.000000 0.000000
    outer loop
      vertex 3.270000 2.460000 14.000000
      vertex 3.270000 2.460000 9.010000
      vertex 3.270000 3.950000 9.010000
    endloop
  endfacet
  facet normal 1.000000 0.000000 0.000000
    outer loop
      vertex 3.270000 2.460000 14.000000
      vertex 3.270000 3.950000 9.010000
      vertex 3.270000 3.950000 14.000000
    endloop
  endfacet
  facet normal 0.000000 -1.000000 0.000000
    outer loop
      vertex 0.795000 2.460000 14.000000
      vertex 0.795000 2.460000 9.010000
      vertex 3.270000 2.460000 9.010000
    endloop
  endfacet
  facet normal 0.000000 -1.000000 0.000000
    outer loop
      vertex 0.795000 2.460000 14.000000
      vertex 3.270000 2.460000 9.010000
      vertex 3.270000 2.460000 14.000000
    endloop
  endfacet
  facet normal -1.000000 0.000000 0.000000
    outer loop
      vertex 0.795000 3.950000 14.000000
      vertex 0.795000 3.950000 9.010000
      vertex 0.795000 2.460000 9.010000
    endloop
  endfacet
  facet normal -1.000000 0.000000 0.000000
    outer loop
      vertex 0.795000 3.950000 14.000000
      vertex 0.795000 2.460000 9.010000
      vertex 0.795000 2.460000 14.000000
    endloop
  endfacet
  facet normal 0.000000 1.000000 0.000000
    outer loop
      vertex 3.270000 3.950000 14.000000
      vertex 3.270000 3.950000 9.010000
      vertex 0.795000 3.950000 9.010000
    endloop
  endfacet
  facet normal 0.000000 1.000000 0.000000
    outer loop
      vertex 3.270000 3.950000 14.000000
      vertex 0.795000 3.950000 9.010000
      vertex 0.795000 3.950000 14.000000
    endloop
  endfacet
  facet normal 0.000000 0.000000 1.000000
    outer loop
      vertex 0.795000 3.950000 14.000000
      vertex 0.795000 2.460000 14.000000
      vertex 3.270000 2.460000 14.000000
    endloop
  endfacet
  facet normal 0.000000 0.000000 1.000000
    outer loop
      vertex 0.795000 3.950000 14.000000
      vertex 3.270000 2.460000 14.000000
      vertex 3.270000 3.950000 14.000000
    endloop
  endfacet
  facet normal 0.000000 0.000000 -1.000000
    outer loop
      vertex 3.270000 2.460000 9.010000
      vertex 0.795000 2.460000 9.010000
      vertex 0.795000 3.950000 9.010000
    endloop
  endfacet
  facet normal 0.000000 0.000000 -1.000000
    outer loop
      vertex 3.270000 2.460000 9.010000
      vertex 0.795000 3.950000 9.010000
      vertex 3.270000 3.950000 9.010000
    endloop
  endfacet
  facet normal 1.000000 0.000000 0.000000
    outer loop
      vertex 2.490000 -0.498000 15.000000
      vertex 2.490000 -0.498000 14.000000
      vertex 2.490000 0.493000 14.000000
    endloop
  endfacet
  facet normal 1.000000 0.000000 0.000000
    outer loop
      vertex 2.490000 -0.498000 15.000000
      vertex 2.490000 0.493000 14.000000
      vertex 2.490000 0.493000 15.000000
    endloop
  endfacet
  facet normal 0.000000 -1.000000 0.000000
    outer loop
      vertex 1.500000 -0.498000 15.000000
      vertex 1.500000 -0.498000 14.000000
      vertex 2.490000 -0.498000 14.000000
    endloop
  endfacet
  facet normal 0.000000 -1.000000 0.000000
    outer loop
      vertex 1.500000 -0.498000 15.000000
      vertex 2.490000 -0.498000 14.000000
      vertex 2.490000 -0.498000 15.000000
    endloop
  endfacet
  facet normal -1.000000 0.000000 0.000000
    outer loop
      vertex 1.500000 0.493000 15.000000
      vertex 1.500000 0.493000 14.000000
      vertex 1.500000 -0.498000 14.000000
    endloop
  endfacet
  facet normal -1.000000 0.000000 0.000000
    outer loop
      vertex 1.500000 0.493000 15.000000
      vertex 1.500000 -0.498000 14.000000
      vertex 1.500000 -0.498000 15.000000
    endloop
  endfacet
  facet normal 0.000000 1.000000 0.000000
    outer loop
      vertex 2.490000 0.493000 15.000000
      vertex 2.490000 0.493000 14.000000
      vertex 1.500000 0.493000 14.000000
    endloop
  endfacet
  facet normal 0.000000 1.000000 0.000000
    outer loop
      vertex 2.490000 0.493000 15.000000
      vertex 1.500000 0.493000 14.000000
      vertex 1.500000 0.493000 15.000000
    endloop
  endfacet
  facet normal 0.000000 0.000000 1.000000
    outer loop
      vertex 1.500000 0.493000 15.000000
      vertex 1.500000 -0.498000 15.000000
      vertex 2.490000 -0.498000 15.000000
    endloop
  endfacet
  facet normal 0.000000 0.000000 1.000000
    outer loop
      vertex 1.500000 0.493000 15.000000
      vertex 2.490000 -0.498000 15.000000
      vertex 2.490000 0.493000 15.000000
    endloop
  endfacet
  facet normal 0.000000 0.000000 -1.000000
    outer loop
      vertex 2.490000 -0.498000 14.000000
      vertex 1.500000 -0.498000 14.000000
      vertex 1.500000 0.493000 14.000000
    endloop
  endfacet
  facet normal 0.000000 0.000000 -1.000000
    outer loop
      vertex 2.490000 -0.498000 14.000000
      vertex 1.500000 0.493000 14.000000
      vertex 2.490000 0.493000 14.000000
    endloop
  endfacet
  facet normal 1.000000 0.000000 0.000000
    outer loop
      vertex 3.250000 -2.500000 9.010000
      vertex 3.250000 -2.500000 8.010000
      vertex 3.250000 2.450000 8.010000
    endloop
  endfacet
  facet normal 1.000000 0.000000 0.000000
    outer loop
      vertex 3.250000 -2.500000 9.010000
      vertex 3.250000 2.450000 8.010000
      vertex 3.250000 2.450000 9.010000
    endloop
  endfacet
  facet normal 0.000000 -1.000000 0.000000
    outer loop
      vertex 0.771000 -2.500000 9.010000
      vertex 0.771000 -2.500000 8.010000
      vertex 3.250000 -2.500000 8.010000
    endloop
  endfacet
  facet normal 0.000000 -1.000000 0.000000
    outer loop
      vertex 0.771000 -2.500000 9.010000
      vertex 3.250000 -2.500000 8.010000
      vertex 3.250000 -2.500000 9.010000
    endloop
  endfacet
  facet normal -1.000000 0.000000 0.000000
    outer loop
      vertex 0.771000 2.450000 9.010000
      vertex 0.771000 2.450000 8.010000
      vertex 0.771000 -2.500000 8.010000
    endloop
  endfacet
  facet normal -1.000000 0.000000 0.000000
    outer loop
      vertex 0.771000 2.450000 9.010000
      vertex 0.771000 -2.500000 8.010000
      vertex 0.771000 -2.500000 9.010000
    endloop
  endfacet
  facet normal 0.000000 1.000000 0.000000
    outer loop
      vertex 3.250000 2.450000 9.010000
      vertex 3.250000 2.450000 8.010000
      vertex 0.771000 2.450000 8.010000
    endloop
  endfacet
  facet normal 0.000000 1.000000 0.000000
    outer loop
      vertex 3.250000 2.450000 9.010000
      vertex 0.771000 2.450000 8.010000
      vertex 0.771000 2.450000 9.010000
    endloop
  endfacet
  facet normal 0.000000 0.000000 1.000000
    outer loop
      vertex 0.771000 2.450000 9.010000
      vertex 0.771000 -2.500000 9.010000
      vertex 3.250000 -2.500000 9.010000
    endloop
  endfacet
  facet normal 0.000000 0.000000 1.000000
    outer loop
      vertex 0.771000 2.450000 9.010000
      vertex 3.250000 -2.500000 9.010000
      vertex 3.250000 2.450000 9.010000
    endloop
  endfacet
  facet normal 0.000000 0.000000 -1.000000
    outer loop
      vertex 3.250000 -2.500000 8.010000
      vertex 0.771000 -2.500000 8.010000
      vertex 0.771000 2.450000 8.010000
    endloop
  endfacet
  facet normal 0.000000 0.000000 -1.000000
    outer loop
      vertex 3.250000 -2.500000 8.010000
      vertex 0.771000 2.450000 8.010000
      vertex 3.250000 2.450000 8.010000
    endloop
  endfacet
  facet normal 1.000000 0.000000 0.000000
    outer loop
      vertex 3.270000 0.465000 8.010000
      vertex 3.270000 0.465000 3.050000
      vertex 3.270000 2.450000 3.050000
    endloop
  endfacet
  facet normal 1.000000 0.000000 0.000000
    outer loop
      vertex 3.270000 0.465000 8.010000
      vertex 3.270000 2.450000 3.050000
      vertex 3.270000 2.450000 8.010000
    endloop
  endfacet
  facet normal 0.000000 -1.000000 0.000000
    outer loop
      vertex 0.795000 0.465000 8.010000
      vertex 0.795000 0.465000 3.050000
      vertex 3.270000 0.465000 3.050000
    endloop
  endfacet
  facet normal 0.000000 -1.000000 0.000000
    outer loop
      vertex 0.795000 0.465000 8.010000
      vertex 3.270000 0.465000 3.050000
      vertex 3.270000 0.465000 8.010000
    endloop
  endfacet
  facet normal -1.000000 0.000000 0.000000
    outer loop
      vertex 0.795000 2.450000 8.010000
      vertex 0.795000 2.450000 3.050000
      vertex 0.795000 0.465000 3.050000
    endloop
  endfacet
  facet normal -1.000000 0.000000 0.000000
    outer loop
      vertex 0.795000 2.450000 8.010000
      vertex 0.795000 0.465000 3.050000
      vertex 0.795000 0.465000 8.010000
    endloop
  endfacet
  facet normal 0.000000 1.000000 0.000000
    outer loop
      vertex 3.270000 2.450000 8.010000
      vertex 3.270000 2.450000 3.050000
      vertex 0.795000 2.450000 3.050000
    endloop
  endfacet
  facet normal 0.000000 1.000000 0.000000
    outer loop
      vertex 3.270000 2.450000 8.010000
      vertex 0.795000 2.450000 3.050000
      vertex 0.795000 2.450000 8.010000
    endloop
  endfacet
  facet normal 0.000000 0.000000 1.000000
    outer loop
      vertex 0.795000 2.450000 8.010000
      vertex 0.795000 0.465000 8.010000
      vertex 3.270000 0.465000 8.010000
    endloop
  endfacet
  facet normal 0.000000 0.000000 1.000000
    outer loop
      vertex 0.795000 2.450000 8.010000
      vertex 3.270000 0.465000 8.010000
      vertex 3.270000 2.450000 8.010000
    endloop
  endfacet
  facet normal 0.000000 0.000000 -1.000000
    outer loop
      vertex 3.270000 0.465000 3.050000
      vertex 0.795000 0.465000 3.050000
      vertex 0.795000 2.450000 3.050000
    endloop
  endfacet
  facet normal 0.000000 0.000000 -1.000000
    outer loop
      vertex 3.270000 0.465000 3.050000
      vertex 0.795000 2.450000 3.050000
      vertex 3.270000 2.450000 3.050000
    endloop
  endfacet


  endsolid

glare_coefficient = 0.3

sphere
    center 7 0 0
    radius = 3
    color = (0, 60, 0) background = 0.3 refractive = 0.7 refractive_index =  0.7 dispersive = 0.0 deflective = 0.5 glare = 0
endsphere


parallelogram
    vertexes_abc
        vertex 5 -5 -5
        vertex 100 -5 -5
        vertex 7 -5 5
    endvertexes
    color = (0, 0, 100) deflective = 0.9
endparallelogram


parallelogram
    vertexes_abc
        vertex 7 5 -5
        vertex 100 5 -5
        vertex 5 5 5
    endvertexes
    color = (100, 0, 0) deflective = 0.9
endparallelogram



glare_coefficient = 1

sphere
    center 40 0 0
    radius = 3
    color = (170, 170, 170) glare = 5.6
endsphere



